<svg width="18" height="12" viewBox="0 0 18 12" fill="none" xmlns="http://www.w3.org/2000/svg">
<path fill-rule="evenodd" clip-rule="evenodd" d="M16.667 0.666748H15.667C15.1147 0.666748 14.667 1.11446 14.667 1.66675V10.3334C14.667 10.8857 15.1147 11.3334 15.667 11.3334H16.667C17.2193 11.3334 17.667 10.8857 17.667 10.3334V1.66675C17.667 1.11446 17.2193 0.666748 16.667 0.666748ZM11.0003 3.00008H12.0003C12.5526 3.00008 13.0003 3.4478 13.0003 4.00008V10.3334C13.0003 10.8857 12.5526 11.3334 12.0003 11.3334H11.0003C10.448 11.3334 10.0003 10.8857 10.0003 10.3334V4.00008C10.0003 3.4478 10.448 3.00008 11.0003 3.00008ZM7.33366 5.33341H6.33366C5.78137 5.33341 5.33366 5.78113 5.33366 6.33341V10.3334C5.33366 10.8857 5.78137 11.3334 6.33366 11.3334H7.33366C7.88594 11.3334 8.33366 10.8857 8.33366 10.3334V6.33341C8.33366 5.78113 7.88594 5.33341 7.33366 5.33341ZM2.66699 7.33341H1.66699C1.11471 7.33341 0.666992 7.78113 0.666992 8.33341V10.3334C0.666992 10.8857 1.11471 11.3334 1.66699 11.3334H2.66699C3.21928 11.3334 3.66699 10.8857 3.66699 10.3334V8.33341C3.66699 7.78113 3.21928 7.33341 2.66699 7.33341Z" fill="white"/>
</svg>
