<svg width="16" height="12" viewBox="0 0 16 12" fill="none" xmlns="http://www.w3.org/2000/svg">
<path fill-rule="evenodd" clip-rule="evenodd" d="M8.3307 2.60814C10.5466 2.60823 12.6778 3.45967 14.2837 4.98647C14.4046 5.10435 14.5979 5.10286 14.717 4.98314L15.873 3.81647C15.9333 3.75575 15.967 3.6735 15.9665 3.58792C15.966 3.50234 15.9314 3.42048 15.8704 3.36047C11.6553 -0.679076 5.00546 -0.679076 0.790364 3.36047C0.729306 3.42044 0.694662 3.50227 0.694099 3.58785C0.693536 3.67343 0.7271 3.7557 0.787364 3.81647L1.9437 4.98314C2.06273 5.10304 2.25617 5.10453 2.37703 4.98647C3.98318 3.45957 6.11459 2.60813 8.3307 2.60814ZM8.3307 6.4038C9.54819 6.40373 10.7222 6.85626 11.6247 7.67347C11.7468 7.78945 11.939 7.78694 12.058 7.6678L13.2127 6.50114C13.2735 6.43994 13.3072 6.35693 13.3064 6.27066C13.3055 6.1844 13.2701 6.10208 13.208 6.04214C10.4598 3.48576 6.2039 3.48576 3.4557 6.04214C3.39362 6.10208 3.3582 6.18444 3.35739 6.27073C3.35657 6.35702 3.39043 6.44003 3.45136 6.50114L4.6057 7.6678C4.72469 7.78694 4.91697 7.78945 5.03903 7.67347C5.9409 6.8568 7.11401 6.40431 8.3307 6.4038ZM10.6437 8.95762C10.6455 9.04413 10.6115 9.12753 10.5497 9.18814L8.55236 11.2038C8.49381 11.263 8.41399 11.2964 8.3307 11.2964C8.24741 11.2964 8.16758 11.263 8.10903 11.2038L6.11136 9.18814C6.04965 9.12749 6.0157 9.04406 6.01753 8.95755C6.01936 8.87104 6.05681 8.78913 6.12103 8.73114C7.3966 7.65225 9.26479 7.65225 10.5404 8.73114C10.6045 8.78917 10.6419 8.87112 10.6437 8.95762Z" fill="white"/>
</svg>
